<?xml version="1.0" encoding="UTF-8" standalone="no"?>
<!-- Created with Inkscape (http://www.inkscape.org/) -->

<svg
   xmlns:dc="http://purl.org/dc/elements/1.1/"
   xmlns:cc="http://creativecommons.org/ns#"
   xmlns:rdf="http://www.w3.org/1999/02/22-rdf-syntax-ns#"
   xmlns:svg="http://www.w3.org/2000/svg"
   xmlns="http://www.w3.org/2000/svg"
   xmlns:sodipodi="http://sodipodi.sourceforge.net/DTD/sodipodi-0.dtd"
   xmlns:inkscape="http://www.inkscape.org/namespaces/inkscape"
   id="svg3004"
   version="1.1"
   inkscape:version="0.48.5 r10040"
   width="400"
   height="400"
   xml:space="preserve"
   sodipodi:docname="background.ai"><metadata
     id="metadata3010"><rdf:RDF><cc:Work
         rdf:about=""><dc:format>image/svg+xml</dc:format><dc:type
           rdf:resource="http://purl.org/dc/dcmitype/StillImage" /><dc:title></dc:title></cc:Work></rdf:RDF></metadata><defs
     id="defs3008"><clipPath
       clipPathUnits="userSpaceOnUse"
       id="clipPath3030"><path
         d="M 0,800 1280,800 1280,0 0,0 0,800 z"
         id="path3032"
         inkscape:connector-curvature="0" /></clipPath><clipPath
       clipPathUnits="userSpaceOnUse"
       id="clipPath3082"><path
         d="m 649.643,460.746 12.703,0 0,-8.786 -12.703,0 0,8.786 z"
         id="path3084"
         inkscape:connector-curvature="0" /></clipPath><clipPath
       clipPathUnits="userSpaceOnUse"
       id="clipPath3106"><path
         d="m 554.31,588.015 40.27,0 0,-134.145 -40.27,0 0,134.145 z"
         id="path3108"
         inkscape:connector-curvature="0" /></clipPath><clipPath
       clipPathUnits="userSpaceOnUse"
       id="clipPath3122"><path
         d="m 677.301,590.721 62.239,0 0,-44.743 -62.239,0 0,44.743 z"
         id="path3124"
         inkscape:connector-curvature="0" /></clipPath></defs><sodipodi:namedview
     pagecolor="#ffffff"
     bordercolor="#666666"
     borderopacity="1"
     objecttolerance="10"
     gridtolerance="10"
     guidetolerance="10"
     inkscape:pageopacity="0"
     inkscape:pageshadow="2"
     inkscape:window-width="1440"
     inkscape:window-height="851"
     id="namedview3006"
     showgrid="false"
     inkscape:zoom="0.645"
     inkscape:cx="800"
     inkscape:cy="502.91938"
     inkscape:window-x="0"
     inkscape:window-y="0"
     inkscape:window-maximized="1"
     inkscape:current-layer="g3012" /><g
     id="g3012"
     inkscape:groupmode="layer"
     inkscape:label="background"
     transform="matrix(1.25,0,0,-1.25,0,400)"><g
       id="g3489"
       transform="translate(-70.18071,-524.674)"><g
         transform="translate(290.26171,680.72925)"
         id="g3070" /><g
         id="g3450"><g
           id="g3034"
           transform="translate(275.81241,575.19205)"><path
             d="m 0,0 0,-0.015 0.06,0 -0.043,0.031 C 0,0.016 0,0 0,0"
             style="fill:#ffffff;fill-opacity:1;fill-rule:nonzero;stroke:none"
             id="path3036"
             inkscape:connector-curvature="0" /></g><g
           id="g3038"
           transform="translate(303.64841,644.02855)"><path
             d="M 0,0 0,0.368 C -0.015,0.25 -0.03,0.149 -0.03,0.045 L 0,0 z"
             style="fill:#ffffff;fill-opacity:1;fill-rule:nonzero;stroke:none"
             id="path3040"
             inkscape:connector-curvature="0" /></g><g
           id="g3042"
           transform="translate(184.48921,575.17745)"><path
             d="m 0,0 0.059,0 0,0.015 c 0,0 0,0.015 -0.016,0.015 L 0,0 z"
             style="fill:#ffffff;fill-opacity:1;fill-rule:nonzero;stroke:none"
             id="path3044"
             inkscape:connector-curvature="0" /></g><g
           id="g3046"
           transform="translate(156.71281,644.02855)"><path
             d="M 0,0 0.03,0.045 C 0.03,0.149 0.014,0.25 0,0.368 L 0,0 z"
             style="fill:#ffffff;fill-opacity:1;fill-rule:nonzero;stroke:none"
             id="path3048"
             inkscape:connector-curvature="0" /></g><g
           id="g3050"
           transform="translate(321.17471,793.96995)"><path
             d="m 0,0 -0.604,-0.088 c -20.708,-2.284 -38.985,-11.779 -57.114,-21.529 -4.331,-8.248 -2.695,-14.942 -2.09,-22.942 l -62.373,0 c 0.604,8 2.24,14.694 -2.091,22.942 -18.129,9.75 -36.406,19.402 -57.112,21.685 l -0.605,0.01 c -0.545,0.044 -1.075,0.078 -1.62,0.123 2.003,-21.591 6.907,-44.218 19.145,-62.464 l 11.666,-8.832 -0.045,-0.02 c -0.707,-0.221 -1.885,-8.544 -2.107,-9.619 -0.618,-3.167 -0.852,-6.349 -0.838,-9.559 0.088,-13.196 2.386,-26.112 5.391,-38.911 0.176,-0.752 2.296,-7.202 1.796,-7.673 l -3.269,-3.064 -10.34,-9.632 c 1.723,-13.814 2.636,-27.645 8.351,-40.559 4.801,-10.782 12.872,-19.057 19.499,-28.646 l 43.078,19.219 43.374,-19.219 c 6.627,9.589 14.829,17.864 19.632,28.646 5.713,12.914 6.7,26.745 8.422,40.559 l -10.294,9.632 -3.255,3.064 c -0.5,0.471 1.621,6.92 1.797,7.672 3.02,12.799 5.317,25.714 5.406,38.91 0.015,3.211 -0.221,6.392 -0.84,9.558 -0.222,1.075 -1.399,9.397 -2.106,9.618 l -0.044,0.014 11.664,8.822 C -5.288,-44.036 -0.384,-21.429 1.62,0.162 1.074,0.117 0.544,0.044 0,0"
             style="fill:#ffffff;fill-opacity:1;fill-rule:nonzero;stroke:none"
             id="path3052"
             inkscape:connector-curvature="0" /></g><g
           id="g3054"
           transform="translate(275.81241,575.19205)"><path
             d="m 0,0 0,-0.015 0.06,0 -0.043,0.031 C 0,0.016 0,0 0,0"
             style="fill:#e6e7e8;fill-opacity:1;fill-rule:nonzero;stroke:none"
             id="path3056"
             inkscape:connector-curvature="0" /></g><g
           id="g3058"
           transform="translate(303.64841,644.02855)"><path
             d="M 0,0 0,0.368 C -0.015,0.25 -0.03,0.149 -0.03,0.045 L 0,0 z"
             style="fill:#e6e7e8;fill-opacity:1;fill-rule:nonzero;stroke:none"
             id="path3060"
             inkscape:connector-curvature="0" /></g><g
           id="g3062"
           transform="translate(184.48921,575.17745)"><path
             d="m 0,0 0.059,0 0,0.015 c 0,0 0,0.015 -0.016,0.015 L 0,0 z"
             style="fill:#e6e7e8;fill-opacity:1;fill-rule:nonzero;stroke:none"
             id="path3064"
             inkscape:connector-curvature="0" /></g><g
           id="g3066"
           transform="translate(156.71281,644.02855)"><path
             d="M 0,0 0.03,0.045 C 0.03,0.149 0.014,0.25 0,0.368 L 0,0 z"
             style="fill:#e6e7e8;fill-opacity:1;fill-rule:nonzero;stroke:none"
             id="path3068"
             inkscape:connector-curvature="0" /></g><path
           transform="translate(290.26171,680.72925)"
           d="m 0,0 c -1.226,-7.307 -2.895,-14.117 -5.246,-21.056 l -5.388,5.004 -40.372,9.262 0,33.668 c 1,11.694 5.613,22.328 12.89,30.633 2.737,2.592 6.581,4.198 10.645,4.198 13.286,0 21.988,-16.346 25.961,-27.011 C 2.718,23.314 0.957,12.224 0,0 m -69.006,-6.79 -40.446,-9.262 -5.415,-5.004 c -2.35,6.939 -4.045,13.749 -5.27,21.056 -0.958,12.224 -2.665,23.314 1.562,34.698 3.974,10.665 12.735,27.011 26.022,27.011 4.064,0 7.847,-1.606 10.585,-4.198 7.277,-8.305 10.962,-18.939 12.962,-30.633 l 0,-33.668 z M 30.913,113.241 30.31,113.152 C 9.603,110.869 -8.674,101.374 -26.804,91.624 c -4.33,-8.247 -2.694,-14.942 -2.091,-22.942 l -31.474,0 -30.899,0 c 0.604,8 2.24,14.695 -2.091,22.942 -18.129,9.75 -36.406,19.401 -57.112,21.685 l -0.605,0.01 c -0.545,0.044 -1.075,0.078 -1.62,0.122 2.003,-21.591 6.907,-44.217 19.145,-62.463 l 11.666,-8.832 -0.045,-0.02 c -0.706,-0.228 -1.892,-8.545 -2.104,-9.621 -0.622,-3.162 -0.861,-6.342 -0.841,-9.561 0.082,-13.186 2.379,-26.114 5.391,-38.907 0.176,-0.752 2.296,-7.202 1.796,-7.674 l -3.276,-3.059 -10.333,-9.637 c 1.723,-13.813 2.636,-27.644 8.351,-40.559 4.801,-10.781 12.872,-19.056 19.499,-28.645 l 43.078,19.219 43.366,-19.219 c 6.627,9.589 14.843,17.864 19.644,28.645 5.713,12.915 6.699,26.746 8.422,40.559 l -10.297,9.637 -3.257,3.059 c -0.501,0.472 1.628,6.921 1.804,7.673 3.012,12.793 5.314,25.721 5.396,38.907 0.02,3.219 -0.216,6.397 -0.84,9.559 -0.211,1.076 -1.397,9.392 -2.103,9.619 l -0.043,0.015 11.666,8.822 c 12.238,18.246 17.142,40.853 19.145,62.444 -0.546,-0.044 -1.075,-0.117 -1.621,-0.161"
           style="fill:#e6e7e8;fill-opacity:1;fill-rule:nonzero;stroke:none"
           id="path3072"
           inkscape:connector-curvature="0" /><g
           id="g3074"
           transform="translate(245.60151,658.35615)"><path
             d="M 0,0 -15.715,-12.486 -31.419,0 c 0.267,0.686 0.701,1.329 1.252,1.919 0.894,0.958 2.091,1.766 3.342,2.404 1.749,0.891 4.066,1.517 6.169,1.476 1.65,-0.043 3.3,0.011 4.941,-0.033 1.651,0.044 3.299,-0.01 4.942,0.033 C -8.66,5.84 -6.342,5.214 -4.599,4.323 -3.354,3.685 -2.16,2.877 -1.262,1.919 -0.713,1.329 -0.273,0.686 0,0"
             style="fill:#58595b;fill-opacity:1;fill-rule:nonzero;stroke:none"
             id="path3076"
             inkscape:connector-curvature="0" /></g><g
           id="g3078"
           transform="translate(-416.74419,203.41085)"><g
             id="g3080" /><g
             id="g3086"><g
               clip-path="url(#clipPath3082)"
               id="g3088"
               style="opacity:0.39999402"><g
                 transform="translate(661.084,456.8643)"
                 id="g3090"><path
                   d="m 0,0 c -0.898,0.958 -2.092,1.766 -3.337,2.404 -1.743,0.891 -4.061,1.517 -6.174,1.476 -0.645,-0.017 -1.286,-0.017 -1.93,-0.013 3.67,-2.16 6.753,-5.144 8.946,-8.771 l 3.757,2.985 C 0.989,-1.233 0.549,-0.59 0,0"
                   style="fill:#ffffff;fill-opacity:1;fill-rule:nonzero;stroke:none"
                   id="path3092"
                   inkscape:connector-curvature="0" /></g></g></g></g><g
           id="g3094"
           transform="translate(212.89451,683.18185)"><path
             d="m 0,0 c 0,-4.144 -3.362,-7.496 -7.509,-7.496 -4.143,0 -7.505,3.352 -7.505,7.496 0,4.16 3.362,7.511 7.505,7.511 0.825,0 1.629,-0.136 2.372,-0.392 2.525,-0.825 4.461,-2.971 4.99,-5.627 C -0.052,1.01 0,0.509 0,0"
             style="fill:#58595b;fill-opacity:1;fill-rule:nonzero;stroke:none"
             id="path3096"
             inkscape:connector-curvature="0" /></g><g
           id="g3098"
           transform="translate(261.90421,683.18185)"><path
             d="m 0,0 c 0,-4.144 -3.36,-7.496 -7.508,-7.496 -4.144,0 -7.505,3.352 -7.505,7.496 0,4.16 3.361,7.511 7.505,7.511 0.825,0 1.633,-0.136 2.37,-0.392 C -2.609,6.294 -0.673,4.148 -0.149,1.492 -0.047,1.01 0,0.509 0,0"
             style="fill:#58595b;fill-opacity:1;fill-rule:nonzero;stroke:none"
             id="path3100"
             inkscape:connector-curvature="0" /></g><g
           id="g3102"
           transform="translate(-416.74419,203.41085)"><g
             id="g3104" /><g
             id="g3110"><g
               clip-path="url(#clipPath3106)"
               id="g3112"
               style="opacity:0.10000598"><g
                 transform="translate(586.5493,477.5244)"
                 id="g3114"><path
                   d="m 0,0 c -0.958,12.224 -2.652,23.314 1.575,34.699 1.485,3.989 3.643,8.772 6.456,13.198 -16.639,18.588 -31.2,38.884 -40.271,62.594 2.171,-20.699 7.163,-42.104 18.851,-59.533 l 11.666,-8.822 -0.045,-0.014 c -0.706,-0.228 -1.893,-8.543 -2.104,-9.62 -0.623,-3.161 -0.861,-6.34 -0.841,-9.559 0.082,-13.186 2.379,-26.113 5.39,-38.907 0.177,-0.751 2.297,-7.202 1.797,-7.672 l -0.02,-0.019 c 0.222,0.081 0.425,0.18 0.641,0.266 0.588,1.241 1.151,2.501 1.691,3.786 C 2.688,-13.163 1.139,-6.794 0,0"
                   style="fill:#000000;fill-opacity:1;fill-rule:nonzero;stroke:none"
                   id="path3116"
                   inkscape:connector-curvature="0" /></g></g></g></g></g><g
         transform="translate(-416.74419,203.41085)"
         id="g3118"><g
           id="g3120" /><g
           id="g3126"><g
             style="opacity:0.10000598"
             id="g3128"
             clip-path="url(#clipPath3122)"><g
               id="g3130"
               transform="translate(739.5146,590.4697)"><path
                 inkscape:connector-curvature="0"
                 id="path3132"
                 style="fill:#000000;fill-opacity:1;fill-rule:nonzero;stroke:none"
                 d="M 0,0 C 0.009,0.083 0.019,0.167 0.025,0.251 -0.521,0.207 -1.05,0.133 -1.596,0.089 L -2.199,0.001 C -22.906,-2.282 -41.183,-12.09 -59.313,-21.84 -63.542,-29.896 -62.082,-35.978 -61.449,-44.492 -44.08,-26.358 -23.597,-9.267 0,0" /></g></g></g></g></g></g></svg>